<svg id="etgvXakImi71" xmlns="http://www.w3.org/2000/svg" xmlns:xlink="http://www.w3.org/1999/xlink" viewBox="0 0 300 300" shape-rendering="geometricPrecision" text-rendering="geometricPrecision"><line x1="5.020478" y1="67.947468" x2="-24.797345" y2="-29.776897" transform="translate(145.949969 29.085433)" fill="none" stroke="#000" stroke-width="3"/><line x1="4.300659" y1="66.98331" x2="-24.896803" y2="-30.143882" transform="matrix(-1 0 0 1 155.271106 30.049591)" fill="none" stroke="#000" stroke-width="3"/><line x1="25.701483" y1="-49.717285" x2="-3.602629" y2="29.390676" transform="translate(125.103197 270.693932)" fill="none" stroke="#000" stroke-width="3"/><line x1="24.075327" y1="-49.690644" x2="-3.602629" y2="29.390676" transform="matrix(-1 0 0 1 174.880007 270.667291)" fill="none" stroke="#000" stroke-width="3"/><line x1="24.704025" y1="-75" x2="-8.70228" y2="80.82948" transform="translate(96.448599 75)" fill="none" stroke="#000" stroke-width="3"/><line x1="25.051969" y1="-74.999999" x2="-8.485859" y2="80.829481" transform="matrix(-1 0 0 1 205.051969 74.999999)" fill="none" stroke="#000" stroke-width="3"/><line x1="7.084277" y1="-46.40313" x2="-25.051968" y2="75" transform="matrix(-1 0 0 1 95.752712 226.391776)" fill="none" stroke="#000" stroke-width="3"/><line x1="10.783062" y1="-46.40313" x2="-25.051968" y2="75" transform="translate(203.66019 226.391776)" fill="none" stroke="#000" stroke-width="3"/><line x1="26.135478" y1="-9.141927" x2="-3.16629" y2="15.059839" transform="translate(91.368616 166.451617)" fill="none" stroke="#000" stroke-width="3"/><line x1="23.840773" y1="-9.71507" x2="-5.567104" y2="14.363951" transform="matrix(-1 0 0 1 209.558807 167.02476)" fill="none" stroke="#000" stroke-width="3"/><line x1="-17.085984" y1="0" x2="15.10077" y2="0" transform="translate(103.350884 156.958881)" fill="none" stroke="#000" stroke-width="3"/><line x1="-15.15077" y1="0" x2="15.10077" y2="0" transform="translate(199.902397 156.958881)" fill="none" stroke="#000" stroke-width="3"/><line x1="-0.347944" y1="-17.049256" x2="0.347944" y2="17.049256" transform="translate(121.152624 106.703495)" fill="none" stroke="#000" stroke-width="3"/><line x1="0" y1="-17.049256" x2="0" y2="17.049256" transform="translate(180 106.703495)" fill="none" stroke="#000" stroke-width="3"/><path d="" fill="none" stroke="#000" stroke-width="0.6"/><line x1="-2.360386" y1="0" x2="0.519614" y2="0" transform="translate(151.890833 96.133474)" fill="none" stroke="#000" stroke-width="3"/><line x1="-2.360386" y1="0" x2="0.519614" y2="0" transform="translate(151.725066 221.947933)" fill="none" stroke="#000" stroke-width="3"/></svg>
